:SAMPLES-PER-SECOND 30
:FRAME-RANGE 1-2775
:FULLY-SPECIFIED
:DEGREES
2602
root  -61.0919 38.5652 -11.0014 3.8252 43.2468 6.74927
RightUpLeg  -23.3589 2.96737 -16.1004
RightLeg  28.5703 -9.25716 -5.63913
RightFoot  -8.83528 -0.23382 7.92752
RightToes  1.218e-010 1.26228e-014 -6.01869e-014
Spine  -5.51487 2.28365 2.01446
Spine1  9.03493 3.54123 -5.79865
HEad  -5.17678 59.4083 -20.9781
LeftShoulder1  0.659859 0.97062 -22.1737
LeftArm  4.29576 -0.0693257 -53.6301
LeftForeArm  35.1374 -4.75204 -12.7602
LeftHand  -0.0299597 5.21957 3.59773
RightShoulder  1.91326 2.70138 25.8286
RightArm  -12.3641 9.01106 57.8258
RightForeArm  70.1316 -2.75102 9.74227
RightHand  0.321616 -7.90939 -15.7207
LeftUpLeg  -7.15569 -6.81993 -9.71556
LeftLeg  21.7217 -0.530007 0.94525
LeftFoot  -13.321 0.150855 4.09479
LeftToes  5.08156e-010 -6.90346e-011 -6.33378e-011
2603
root  -60.7074 38.5885 -10.1524 4.12033 44.6094 6.70062
RightUpLeg  -22.4459 4.40005 -17.8899
RightLeg  18.774 -6.37662 -2.61099
RightFoot  -9.14213 -0.211665 7.774
RightToes  1.218e-010 1.26228e-014 -6.01869e-014
Spine  -5.89913 2.16563 2.63038
Spine1  9.38821 3.42183 -5.48415
HEad  -5.7879 59.2618 -21.8007
LeftShoulder1  0.583452 1.25912 -22.4393
LeftArm  4.78682 -0.909641 -53.7288
LeftForeArm  34.9197 -4.97054 -12.7534
LeftHand  -0.031112 5.17489 3.58355
RightShoulder  1.85317 2.55581 25.5784
RightArm  -13.5645 8.8349 56.3309
RightForeArm  69.1006 -2.7861 9.18989
RightHand  0.31581 -7.83202 -15.9197
LeftUpLeg  -5.76442 -7.47528 -9.16989
LeftLeg  21.3934 -1.15868 0.618636
LeftFoot  -14.3248 0.192864 4.09817
LeftToes  5.08156e-010 -6.90346e-011 -6.33378e-011
2604
root  -60.32 38.5759 -9.24914 4.37422 45.7017 6.75211
RightUpLeg  -21.3144 3.08688 -18.0458
RightLeg  10.2491 0.801557 -1.73493
RightFoot  -9.81693 -0.194824 9.59682
RightToes  1.218e-010 1.26228e-014 -6.01869e-014
Spine  -6.25392 2.18848 3.15281
Spine1  9.57727 3.43432 -5.28064
HEad  -5.5339 59.2475 -21.6863
LeftShoulder1  0.579254 1.27618 -22.4741
LeftArm  4.52915 -0.982688 -53.763
LeftForeArm  34.8357 -4.85123 -12.7457
LeftHand  -0.0302475 5.22279 4.54265
RightShoulder  1.84383 2.53162 25.5472
RightArm  -14.308 8.37811 54.4547
RightForeArm  67.8075 -2.76167 8.92186
RightHand  0.31473 -7.76718 -16.2661
LeftUpLeg  -4.27134 -7.9681 -8.6287
LeftLeg  21.1778 -1.65871 0.324813
LeftFoot  -15.5219 0.239952 4.01713
LeftToes  5.08156e-010 -6.90346e-011 -6.33378e-011
2605
root  -59.9447 38.5296 -8.25913 4.3436 46.6726 6.55688
RightUpLeg  -20.6054 -3.82173 -15.1378
RightLeg  4.68251 9.99654 -3.17007
RightFoot  -10.1964 -0.181477 11.1733
RightToes  1.218e-010 1.26228e-014 -6.01869e-014
Spine  -6.78858 2.20297 3.63666
Spine1  10.004 3.39996 -5.12514
HEad  -4.90331 59.3933 -21.0831
LeftShoulder1  0.539003 1.41532 -22.4444
LeftArm  3.9526 -0.789381 -53.573
LeftForeArm  35.3578 -4.39598 -12.7783
LeftHand  -0.0321089 5.15937 4.20862
RightShoulder  1.84441 2.50196 25.7262
RightArm  -15.1384 8.14838 52.727
RightForeArm  67.2649 -3.23734 8.53262
RightHand  0.326462 -7.77337 -16.7535
LeftUpLeg  -2.67995 -8.44247 -7.79023
LeftLeg  21.1789 -2.15166 0.0529908
LeftFoot  -16.9717 0.274058 3.49891
LeftToes  5.08156e-010 -6.90346e-011 -6.33378e-011
2606
root  -59.6073 38.3714 -7.19798 4.52188 47.1025 6.69241
RightUpLeg  -21.0241 -4.99624 -14.5964
RightLeg  4.39802 9.29653 -2.6802
RightFoot  -10.4816 -0.165835 12.5275
RightToes  1.218e-010 1.26228e-014 -6.01869e-014
Spine  -6.88296 2.31143 3.63033
Spine1  9.94842 3.4838 -5.06229
HEad  -4.14111 59.7268 -20.3719
LeftShoulder1  0.508814 1.5351 -22.6824
LeftArm  3.68736 -0.196445 -52.8134
LeftForeArm  35.5553 -3.88969 -12.8783
LeftHand  -0.0296908 5.23411 3.97307
RightShoulder  1.82324 2.43711 25.7136
RightArm  -16.1382 8.13511 51.4918
RightForeArm  67.3857 -4.25036 7.9528
RightHand  0.344691 -7.87849 -17.1473
LeftUpLeg  -1.37574 -9.04061 -7.15078
LeftLeg  21.8584 -2.0992 -0.116993
LeftFoot  -18.8586 0.295051 2.76676
LeftToes  5.08156e-010 -6.90346e-011 -6.33378e-011
